<mxfile host="Electron" modified="2024-02-18T16:32:22.026Z" agent="Mozilla/5.0 (Macintosh; Intel Mac OS X 10_15_7) AppleWebKit/537.36 (KHTML, like Gecko) draw.io/23.1.5 Chrome/120.0.6099.109 Electron/28.1.0 Safari/537.36" etag="0lHMMjlHtZUfAu5okxUj" version="23.1.5" type="device">
  <diagram id="R2lEEEUBdFMjLlhIrx00" name="Page-1">
    <mxGraphModel dx="2452" dy="2286" grid="0" gridSize="10" guides="1" tooltips="1" connect="1" arrows="1" fold="1" page="0" pageScale="1" pageWidth="1600" pageHeight="900" math="0" shadow="0" extFonts="Permanent Marker^https://fonts.googleapis.com/css?family=Permanent+Marker">
      <root>
        <mxCell id="0" />
        <mxCell id="1" parent="0" />
        <mxCell id="Vy30_EnvwmwGDLiwIp30-73" style="rounded=0;orthogonalLoop=1;jettySize=auto;html=1;entryX=0.499;entryY=0.938;entryDx=0;entryDy=0;edgeStyle=orthogonalEdgeStyle;exitX=0.5;exitY=1;exitDx=0;exitDy=0;endArrow=none;endFill=0;entryPerimeter=0;" parent="1" source="Vy30_EnvwmwGDLiwIp30-14" target="Vy30_EnvwmwGDLiwIp30-72" edge="1">
          <mxGeometry relative="1" as="geometry">
            <mxPoint x="590" y="201" as="sourcePoint" />
            <Array as="points">
              <mxPoint x="455" y="240" />
              <mxPoint x="195" y="240" />
            </Array>
          </mxGeometry>
        </mxCell>
        <mxCell id="Vy30_EnvwmwGDLiwIp30-77" value="(1, 1)" style="edgeLabel;html=1;align=center;verticalAlign=middle;resizable=0;points=[];fontSize=11;fontFamily=Helvetica;" parent="Vy30_EnvwmwGDLiwIp30-73" vertex="1" connectable="0">
          <mxGeometry relative="1" as="geometry">
            <mxPoint x="-49" as="offset" />
          </mxGeometry>
        </mxCell>
        <mxCell id="X9jWhabZ-hM0u1myjytv-17" style="rounded=0;orthogonalLoop=1;jettySize=auto;html=1;endArrow=oval;endFill=0;" parent="1" source="Vy30_EnvwmwGDLiwIp30-14" edge="1">
          <mxGeometry relative="1" as="geometry">
            <mxPoint x="337" y="140" as="targetPoint" />
          </mxGeometry>
        </mxCell>
        <mxCell id="X9jWhabZ-hM0u1myjytv-18" value="nome" style="edgeLabel;html=1;align=center;verticalAlign=middle;resizable=0;points=[];" parent="X9jWhabZ-hM0u1myjytv-17" vertex="1" connectable="0">
          <mxGeometry x="1" y="-5" relative="1" as="geometry">
            <mxPoint x="-20" y="5" as="offset" />
          </mxGeometry>
        </mxCell>
        <mxCell id="Vy30_EnvwmwGDLiwIp30-14" value="Insegnamento" style="rounded=1;whiteSpace=wrap;html=1;hachureGap=4;fontFamily=Architects Daughter;fontSource=https%3A%2F%2Ffonts.googleapis.com%2Fcss%3Ffamily%3DArchitects%2BDaughter;fontSize=20;labelBackgroundColor=none;" parent="1" vertex="1">
          <mxGeometry x="380" y="110" width="150" height="60" as="geometry" />
        </mxCell>
        <mxCell id="Vy30_EnvwmwGDLiwIp30-18" style="rounded=0;hachureGap=4;orthogonalLoop=1;jettySize=auto;html=1;fontFamily=Architects Daughter;fontSource=https%3A%2F%2Ffonts.googleapis.com%2Fcss%3Ffamily%3DArchitects%2BDaughter;fontSize=16;entryX=1;entryY=0.5;entryDx=0;entryDy=0;labelBackgroundColor=none;fontColor=default;edgeStyle=orthogonalEdgeStyle;endArrow=none;endFill=0;exitX=0.502;exitY=0.032;exitDx=0;exitDy=0;exitPerimeter=0;curved=0;" parent="1" source="Vy30_EnvwmwGDLiwIp30-17" target="Vy30_EnvwmwGDLiwIp30-14" edge="1">
          <mxGeometry relative="1" as="geometry">
            <mxPoint x="340" y="270" as="targetPoint" />
            <mxPoint x="742" y="140" as="sourcePoint" />
            <Array as="points">
              <mxPoint x="656" y="140" />
            </Array>
          </mxGeometry>
        </mxCell>
        <mxCell id="X9jWhabZ-hM0u1myjytv-12" value="(0, N)" style="edgeLabel;html=1;align=center;verticalAlign=middle;resizable=0;points=[];" parent="Vy30_EnvwmwGDLiwIp30-18" vertex="1" connectable="0">
          <mxGeometry relative="1" as="geometry">
            <mxPoint x="-24" y="-1" as="offset" />
          </mxGeometry>
        </mxCell>
        <mxCell id="Vy30_EnvwmwGDLiwIp30-17" value="propedeuticitÃ " style="rhombus;whiteSpace=wrap;html=1;hachureGap=4;fontFamily=Architects Daughter;fontSource=https%3A%2F%2Ffonts.googleapis.com%2Fcss%3Ffamily%3DArchitects%2BDaughter;fontSize=13;rounded=1;labelBackgroundColor=none;" parent="1" vertex="1">
          <mxGeometry x="598" y="144" width="116" height="70" as="geometry" />
        </mxCell>
        <mxCell id="Vy30_EnvwmwGDLiwIp30-20" style="rounded=0;orthogonalLoop=1;jettySize=auto;html=1;labelBackgroundColor=none;fontColor=default;edgeStyle=orthogonalEdgeStyle;endArrow=none;endFill=0;curved=0;entryX=0.502;entryY=0.968;entryDx=0;entryDy=0;entryPerimeter=0;exitX=0.75;exitY=1;exitDx=0;exitDy=0;" parent="1" source="Vy30_EnvwmwGDLiwIp30-14" target="Vy30_EnvwmwGDLiwIp30-17" edge="1">
          <mxGeometry relative="1" as="geometry">
            <mxPoint x="685" y="215" as="targetPoint" />
            <Array as="points">
              <mxPoint x="492" y="220" />
              <mxPoint x="656" y="220" />
            </Array>
            <mxPoint x="517" y="170" as="sourcePoint" />
          </mxGeometry>
        </mxCell>
        <mxCell id="X9jWhabZ-hM0u1myjytv-13" value="(0, N)" style="edgeLabel;html=1;align=center;verticalAlign=middle;resizable=0;points=[];" parent="Vy30_EnvwmwGDLiwIp30-20" vertex="1" connectable="0">
          <mxGeometry relative="1" as="geometry">
            <mxPoint x="3" y="-1" as="offset" />
          </mxGeometry>
        </mxCell>
        <mxCell id="Vy30_EnvwmwGDLiwIp30-58" style="rounded=0;orthogonalLoop=1;jettySize=auto;html=1;entryX=1;entryY=0.5;entryDx=0;entryDy=0;strokeColor=none;" parent="1" source="Vy30_EnvwmwGDLiwIp30-19" target="Vy30_EnvwmwGDLiwIp30-57" edge="1">
          <mxGeometry relative="1" as="geometry">
            <mxPoint x="691" y="98" as="targetPoint" />
          </mxGeometry>
        </mxCell>
        <mxCell id="Vy30_EnvwmwGDLiwIp30-59" style="rounded=0;orthogonalLoop=1;jettySize=auto;html=1;entryX=0.95;entryY=0.514;entryDx=0;entryDy=0;edgeStyle=orthogonalEdgeStyle;endArrow=none;endFill=0;entryPerimeter=0;" parent="1" source="Vy30_EnvwmwGDLiwIp30-19" target="Vy30_EnvwmwGDLiwIp30-57" edge="1">
          <mxGeometry relative="1" as="geometry">
            <mxPoint x="516.8888888888889" y="100.11111111111109" as="targetPoint" />
            <Array as="points">
              <mxPoint x="817" y="-260" />
              <mxPoint x="817" y="-19" />
            </Array>
          </mxGeometry>
        </mxCell>
        <mxCell id="Vy30_EnvwmwGDLiwIp30-62" value="(1, 1)" style="edgeLabel;html=1;align=center;verticalAlign=middle;resizable=0;points=[];rotation=0;" parent="Vy30_EnvwmwGDLiwIp30-59" vertex="1" connectable="0">
          <mxGeometry relative="1" as="geometry">
            <mxPoint x="-69" y="88" as="offset" />
          </mxGeometry>
        </mxCell>
        <mxCell id="X9jWhabZ-hM0u1myjytv-53" style="edgeStyle=orthogonalEdgeStyle;rounded=0;orthogonalLoop=1;jettySize=auto;html=1;exitX=1.007;exitY=0.919;exitDx=0;exitDy=0;entryX=0.5;entryY=0.075;entryDx=0;entryDy=0;endArrow=none;endFill=0;entryPerimeter=0;exitPerimeter=0;" parent="1" source="Vy30_EnvwmwGDLiwIp30-19" target="X9jWhabZ-hM0u1myjytv-51" edge="1">
          <mxGeometry relative="1" as="geometry">
            <Array as="points">
              <mxPoint x="1174" y="-235" />
            </Array>
          </mxGeometry>
        </mxCell>
        <mxCell id="X9jWhabZ-hM0u1myjytv-55" value="(0, N)" style="edgeLabel;html=1;align=center;verticalAlign=middle;resizable=0;points=[];" parent="X9jWhabZ-hM0u1myjytv-53" vertex="1" connectable="0">
          <mxGeometry x="-0.0796" relative="1" as="geometry">
            <mxPoint x="47" y="26" as="offset" />
          </mxGeometry>
        </mxCell>
        <mxCell id="Vy30_EnvwmwGDLiwIp30-19" value="Studente" style="rounded=1;whiteSpace=wrap;html=1;hachureGap=4;fontFamily=Architects Daughter;fontSource=https%3A%2F%2Ffonts.googleapis.com%2Fcss%3Ffamily%3DArchitects%2BDaughter;fontSize=20;labelBackgroundColor=none;" parent="1" vertex="1">
          <mxGeometry x="890" y="-290" width="150" height="60" as="geometry" />
        </mxCell>
        <mxCell id="Vy30_EnvwmwGDLiwIp30-80" style="rounded=0;hachureGap=4;orthogonalLoop=1;jettySize=auto;html=1;exitX=1;exitY=0.25;exitDx=0;exitDy=0;fontFamily=Helvetica;fontSize=11;endArrow=oval;endFill=1;" parent="1" source="Vy30_EnvwmwGDLiwIp30-21" edge="1">
          <mxGeometry relative="1" as="geometry">
            <mxPoint x="755.75" y="-375.35" as="targetPoint" />
            <mxPoint x="540" y="-444.9999999999999" as="sourcePoint" />
          </mxGeometry>
        </mxCell>
        <mxCell id="Vy30_EnvwmwGDLiwIp30-81" value="ID" style="edgeLabel;html=1;align=center;verticalAlign=middle;resizable=0;points=[];fontSize=11;fontFamily=Helvetica;fontColor=none;noLabel=1;" parent="Vy30_EnvwmwGDLiwIp30-80" vertex="1" connectable="0">
          <mxGeometry relative="1" as="geometry">
            <mxPoint x="15" y="-1" as="offset" />
          </mxGeometry>
        </mxCell>
        <mxCell id="XaH3DRYimxq2jVA85XJj-1" value="ID" style="edgeLabel;html=1;align=center;verticalAlign=middle;resizable=0;points=[];" parent="Vy30_EnvwmwGDLiwIp30-80" vertex="1" connectable="0">
          <mxGeometry relative="1" as="geometry">
            <mxPoint x="33" y="-1" as="offset" />
          </mxGeometry>
        </mxCell>
        <mxCell id="Vy30_EnvwmwGDLiwIp30-82" style="rounded=0;hachureGap=4;orthogonalLoop=1;jettySize=auto;html=1;fontFamily=Architects Daughter;fontSource=https%3A%2F%2Ffonts.googleapis.com%2Fcss%3Ffamily%3DArchitects%2BDaughter;fontSize=16;endArrow=oval;endFill=0;exitX=1.007;exitY=0.594;exitDx=0;exitDy=0;exitPerimeter=0;" parent="1" source="Vy30_EnvwmwGDLiwIp30-21" edge="1">
          <mxGeometry relative="1" as="geometry">
            <mxPoint x="755.75" y="-354.35" as="targetPoint" />
            <mxPoint x="635.1800000000001" y="-390" as="sourcePoint" />
          </mxGeometry>
        </mxCell>
        <mxCell id="XaH3DRYimxq2jVA85XJj-2" value="nome" style="edgeLabel;html=1;align=center;verticalAlign=middle;resizable=0;points=[];" parent="Vy30_EnvwmwGDLiwIp30-82" vertex="1" connectable="0">
          <mxGeometry relative="1" as="geometry">
            <mxPoint x="40" y="-1" as="offset" />
          </mxGeometry>
        </mxCell>
        <mxCell id="XaH3DRYimxq2jVA85XJj-3" style="rounded=0;orthogonalLoop=1;jettySize=auto;html=1;endArrow=oval;endFill=0;exitX=0.986;exitY=0.917;exitDx=0;exitDy=0;exitPerimeter=0;" parent="1" source="Vy30_EnvwmwGDLiwIp30-21" edge="1">
          <mxGeometry relative="1" as="geometry">
            <mxPoint x="755.75" y="-335.35" as="targetPoint" />
            <mxPoint x="682.75" y="-391.35" as="sourcePoint" />
          </mxGeometry>
        </mxCell>
        <mxCell id="XaH3DRYimxq2jVA85XJj-4" value="cognome" style="edgeLabel;html=1;align=center;verticalAlign=middle;resizable=0;points=[];" parent="XaH3DRYimxq2jVA85XJj-3" vertex="1" connectable="0">
          <mxGeometry relative="1" as="geometry">
            <mxPoint x="50" y="-1" as="offset" />
          </mxGeometry>
        </mxCell>
        <mxCell id="Vy30_EnvwmwGDLiwIp30-21" value="Segreteria" style="rounded=1;whiteSpace=wrap;html=1;hachureGap=4;fontFamily=Architects Daughter;fontSource=https%3A%2F%2Ffonts.googleapis.com%2Fcss%3Ffamily%3DArchitects%2BDaughter;fontSize=20;labelBackgroundColor=none;" parent="1" vertex="1">
          <mxGeometry x="564" y="-390" width="150" height="60" as="geometry" />
        </mxCell>
        <mxCell id="Vy30_EnvwmwGDLiwIp30-30" value="" style="rounded=0;orthogonalLoop=1;jettySize=auto;html=1;labelBackgroundColor=none;fontColor=default;edgeStyle=orthogonalEdgeStyle;curved=0;endArrow=none;endFill=0;entryX=0.5;entryY=0;entryDx=0;entryDy=0;" parent="1" source="Vy30_EnvwmwGDLiwIp30-27" target="Vy30_EnvwmwGDLiwIp30-29" edge="1">
          <mxGeometry relative="1" as="geometry">
            <Array as="points">
              <mxPoint x="320" y="-170" />
              <mxPoint x="410" y="-170" />
              <mxPoint x="410" y="-120" />
            </Array>
          </mxGeometry>
        </mxCell>
        <mxCell id="Vy30_EnvwmwGDLiwIp30-55" value="(0, 3)" style="edgeLabel;html=1;align=center;verticalAlign=middle;resizable=0;points=[];" parent="Vy30_EnvwmwGDLiwIp30-30" vertex="1" connectable="0">
          <mxGeometry relative="1" as="geometry">
            <mxPoint x="15" as="offset" />
          </mxGeometry>
        </mxCell>
        <mxCell id="XaH3DRYimxq2jVA85XJj-6" style="rounded=0;orthogonalLoop=1;jettySize=auto;html=1;entryX=0.498;entryY=0.05;entryDx=0;entryDy=0;edgeStyle=orthogonalEdgeStyle;endArrow=none;endFill=0;entryPerimeter=0;exitX=0.288;exitY=0.967;exitDx=0;exitDy=0;exitPerimeter=0;" parent="1" source="Vy30_EnvwmwGDLiwIp30-27" target="XaH3DRYimxq2jVA85XJj-5" edge="1">
          <mxGeometry relative="1" as="geometry">
            <mxPoint x="264" y="-225" as="sourcePoint" />
            <Array as="points">
              <mxPoint x="264" y="-232" />
              <mxPoint x="264" y="-230" />
              <mxPoint x="260" y="-230" />
              <mxPoint x="260" y="-180" />
              <mxPoint x="-5" y="-180" />
            </Array>
          </mxGeometry>
        </mxCell>
        <mxCell id="XaH3DRYimxq2jVA85XJj-7" value="(0, 1)" style="edgeLabel;html=1;align=center;verticalAlign=middle;resizable=0;points=[];rotation=0;" parent="XaH3DRYimxq2jVA85XJj-6" vertex="1" connectable="0">
          <mxGeometry relative="1" as="geometry">
            <mxPoint x="24" as="offset" />
          </mxGeometry>
        </mxCell>
        <mxCell id="Vy30_EnvwmwGDLiwIp30-27" value="Docente" style="rounded=1;whiteSpace=wrap;html=1;hachureGap=4;fontFamily=Architects Daughter;fontSource=https%3A%2F%2Ffonts.googleapis.com%2Fcss%3Ffamily%3DArchitects%2BDaughter;fontSize=20;labelBackgroundColor=none;" parent="1" vertex="1">
          <mxGeometry x="225" y="-290" width="120" height="60" as="geometry" />
        </mxCell>
        <mxCell id="Vy30_EnvwmwGDLiwIp30-31" style="rounded=0;orthogonalLoop=1;jettySize=auto;html=1;labelBackgroundColor=none;fontColor=default;edgeStyle=orthogonalEdgeStyle;curved=0;endArrow=none;endFill=0;" parent="1" source="Vy30_EnvwmwGDLiwIp30-29" target="Vy30_EnvwmwGDLiwIp30-14" edge="1">
          <mxGeometry relative="1" as="geometry" />
        </mxCell>
        <mxCell id="Vy30_EnvwmwGDLiwIp30-56" value="(1, 1)" style="edgeLabel;html=1;align=center;verticalAlign=middle;resizable=0;points=[];" parent="Vy30_EnvwmwGDLiwIp30-31" vertex="1" connectable="0">
          <mxGeometry relative="1" as="geometry">
            <mxPoint x="-1" as="offset" />
          </mxGeometry>
        </mxCell>
        <mxCell id="Vy30_EnvwmwGDLiwIp30-29" value="responsabile&lt;br style=&quot;font-size: 14px;&quot;&gt;inseg" style="rhombus;whiteSpace=wrap;html=1;fontSize=14;fontFamily=Architects Daughter;rounded=1;hachureGap=4;fontSource=https%3A%2F%2Ffonts.googleapis.com%2Fcss%3Ffamily%3DArchitects%2BDaughter;labelBackgroundColor=none;" parent="1" vertex="1">
          <mxGeometry x="351" y="-120" width="118" height="80" as="geometry" />
        </mxCell>
        <mxCell id="Vy30_EnvwmwGDLiwIp30-36" value="" style="rounded=0;orthogonalLoop=1;jettySize=auto;html=1;endArrow=oval;endFill=0;labelBackgroundColor=none;fontColor=default;exitX=-0.003;exitY=0.163;exitDx=0;exitDy=0;exitPerimeter=0;" parent="1" source="Vy30_EnvwmwGDLiwIp30-14" edge="1">
          <mxGeometry x="0.2634" y="12" relative="1" as="geometry">
            <mxPoint x="339" y="120" as="targetPoint" />
            <mxPoint x="378" y="119" as="sourcePoint" />
            <mxPoint as="offset" />
          </mxGeometry>
        </mxCell>
        <mxCell id="Vy30_EnvwmwGDLiwIp30-38" value="codice_univoco" style="edgeLabel;html=1;align=center;verticalAlign=middle;resizable=0;points=[];rounded=1;labelBackgroundColor=none;" parent="Vy30_EnvwmwGDLiwIp30-36" vertex="1" connectable="0">
          <mxGeometry relative="1" as="geometry">
            <mxPoint x="-65" as="offset" />
          </mxGeometry>
        </mxCell>
        <mxCell id="Vy30_EnvwmwGDLiwIp30-43" style="edgeStyle=orthogonalEdgeStyle;rounded=1;orthogonalLoop=1;jettySize=auto;html=1;exitX=0.999;exitY=0.598;exitDx=0;exitDy=0;endArrow=oval;endFill=0;labelBackgroundColor=none;fontColor=default;exitPerimeter=0;" parent="1" edge="1">
          <mxGeometry relative="1" as="geometry">
            <mxPoint x="1084" y="-264" as="targetPoint" />
            <mxPoint x="1039.85" y="-264.1199999999999" as="sourcePoint" />
          </mxGeometry>
        </mxCell>
        <mxCell id="Vy30_EnvwmwGDLiwIp30-44" value="cognome" style="edgeLabel;html=1;align=center;verticalAlign=middle;resizable=0;points=[];rounded=1;labelBackgroundColor=none;" parent="Vy30_EnvwmwGDLiwIp30-43" vertex="1" connectable="0">
          <mxGeometry relative="1" as="geometry">
            <mxPoint x="50" y="-1" as="offset" />
          </mxGeometry>
        </mxCell>
        <mxCell id="Vy30_EnvwmwGDLiwIp30-45" style="rounded=1;orthogonalLoop=1;jettySize=auto;html=1;endArrow=oval;endFill=0;labelBackgroundColor=none;fontColor=default;exitX=0.999;exitY=0.626;exitDx=0;exitDy=0;exitPerimeter=0;" parent="1" source="Vy30_EnvwmwGDLiwIp30-19" edge="1">
          <mxGeometry relative="1" as="geometry">
            <mxPoint x="1084" y="-251" as="targetPoint" />
            <mxPoint x="1038.7999999999997" y="-246.29999999999995" as="sourcePoint" />
          </mxGeometry>
        </mxCell>
        <mxCell id="Vy30_EnvwmwGDLiwIp30-46" value="email" style="edgeLabel;html=1;align=center;verticalAlign=middle;resizable=0;points=[];rounded=1;labelBackgroundColor=none;" parent="Vy30_EnvwmwGDLiwIp30-45" vertex="1" connectable="0">
          <mxGeometry relative="1" as="geometry">
            <mxPoint x="41" y="3" as="offset" />
          </mxGeometry>
        </mxCell>
        <mxCell id="Vy30_EnvwmwGDLiwIp30-47" style="rounded=1;orthogonalLoop=1;jettySize=auto;html=1;endArrow=oval;endFill=1;labelBackgroundColor=none;fontColor=default;exitX=0.914;exitY=-0.027;exitDx=0;exitDy=0;exitPerimeter=0;" parent="1" source="Vy30_EnvwmwGDLiwIp30-19" edge="1">
          <mxGeometry relative="1" as="geometry">
            <mxPoint x="1027" y="-334" as="targetPoint" />
            <mxPoint x="1046" y="-281" as="sourcePoint" />
          </mxGeometry>
        </mxCell>
        <mxCell id="Vy30_EnvwmwGDLiwIp30-48" value="matricola" style="edgeLabel;html=1;align=center;verticalAlign=middle;resizable=0;points=[];rounded=1;labelBackgroundColor=none;" parent="Vy30_EnvwmwGDLiwIp30-47" vertex="1" connectable="0">
          <mxGeometry relative="1" as="geometry">
            <mxPoint x="31" y="-22" as="offset" />
          </mxGeometry>
        </mxCell>
        <mxCell id="Vy30_EnvwmwGDLiwIp30-49" style="edgeStyle=orthogonalEdgeStyle;rounded=1;orthogonalLoop=1;jettySize=auto;html=1;exitX=1.003;exitY=0.355;exitDx=0;exitDy=0;endArrow=oval;endFill=0;labelBackgroundColor=none;fontColor=default;exitPerimeter=0;" parent="1" edge="1">
          <mxGeometry relative="1" as="geometry">
            <mxPoint x="1084" y="-279" as="targetPoint" />
            <mxPoint x="1040.4499999999998" y="-278.70000000000005" as="sourcePoint" />
          </mxGeometry>
        </mxCell>
        <mxCell id="Vy30_EnvwmwGDLiwIp30-50" value="nome" style="edgeLabel;html=1;align=center;verticalAlign=middle;resizable=0;points=[];rounded=1;labelBackgroundColor=none;" parent="Vy30_EnvwmwGDLiwIp30-49" vertex="1" connectable="0">
          <mxGeometry relative="1" as="geometry">
            <mxPoint x="41" y="-2" as="offset" />
          </mxGeometry>
        </mxCell>
        <mxCell id="Vy30_EnvwmwGDLiwIp30-61" style="rounded=0;orthogonalLoop=1;jettySize=auto;html=1;exitX=0.044;exitY=0.502;exitDx=0;exitDy=0;edgeStyle=orthogonalEdgeStyle;endArrow=none;endFill=0;exitPerimeter=0;" parent="1" source="Vy30_EnvwmwGDLiwIp30-57" target="Vy30_EnvwmwGDLiwIp30-60" edge="1">
          <mxGeometry relative="1" as="geometry" />
        </mxCell>
        <mxCell id="Vy30_EnvwmwGDLiwIp30-63" value="(0, N)" style="edgeLabel;html=1;align=center;verticalAlign=middle;resizable=0;points=[];" parent="Vy30_EnvwmwGDLiwIp30-61" vertex="1" connectable="0">
          <mxGeometry relative="1" as="geometry">
            <mxPoint x="66" as="offset" />
          </mxGeometry>
        </mxCell>
        <mxCell id="Vy30_EnvwmwGDLiwIp30-57" value="iscrizione&lt;br&gt;CdL" style="rhombus;whiteSpace=wrap;html=1;hachureGap=4;fontFamily=Architects Daughter;fontSource=https%3A%2F%2Ffonts.googleapis.com%2Fcss%3Ffamily%3DArchitects%2BDaughter;fontSize=16;rounded=1;labelBackgroundColor=none;" parent="1" vertex="1">
          <mxGeometry x="570" y="-60" width="116" height="80" as="geometry" />
        </mxCell>
        <mxCell id="Vy30_EnvwmwGDLiwIp30-60" value="Corso di Laurea" style="rounded=1;whiteSpace=wrap;html=1;hachureGap=4;fontFamily=Architects Daughter;fontSource=https%3A%2F%2Ffonts.googleapis.com%2Fcss%3Ffamily%3DArchitects%2BDaughter;fontSize=20;labelBackgroundColor=none;" parent="1" vertex="1">
          <mxGeometry x="120" y="-50" width="150" height="60" as="geometry" />
        </mxCell>
        <mxCell id="Vy30_EnvwmwGDLiwIp30-64" style="rounded=0;orthogonalLoop=1;jettySize=auto;html=1;endArrow=oval;endFill=0;labelBackgroundColor=none;fontColor=default;exitX=-0.006;exitY=0.621;exitDx=0;exitDy=0;exitPerimeter=0;edgeStyle=orthogonalEdgeStyle;curved=0;" parent="1" source="Vy30_EnvwmwGDLiwIp30-27" edge="1">
          <mxGeometry relative="1" as="geometry">
            <mxPoint x="180" y="-253" as="targetPoint" />
            <mxPoint x="228" y="-253.99999999999994" as="sourcePoint" />
          </mxGeometry>
        </mxCell>
        <mxCell id="Vy30_EnvwmwGDLiwIp30-65" value="cognome" style="edgeLabel;html=1;align=center;verticalAlign=middle;resizable=0;points=[];rounded=1;labelBackgroundColor=none;" parent="Vy30_EnvwmwGDLiwIp30-64" vertex="1" connectable="0">
          <mxGeometry relative="1" as="geometry">
            <mxPoint x="-51" y="-2" as="offset" />
          </mxGeometry>
        </mxCell>
        <mxCell id="Vy30_EnvwmwGDLiwIp30-66" style="rounded=0;orthogonalLoop=1;jettySize=auto;html=1;exitX=0.005;exitY=0.838;exitDx=0;exitDy=0;endArrow=oval;endFill=0;labelBackgroundColor=none;fontColor=default;exitPerimeter=0;edgeStyle=orthogonalEdgeStyle;curved=0;" parent="1" source="Vy30_EnvwmwGDLiwIp30-27" edge="1">
          <mxGeometry relative="1" as="geometry">
            <mxPoint x="179" y="-239.99999999999994" as="targetPoint" />
            <mxPoint x="224" y="-239.99999999999994" as="sourcePoint" />
          </mxGeometry>
        </mxCell>
        <mxCell id="Vy30_EnvwmwGDLiwIp30-67" value="email" style="edgeLabel;html=1;align=center;verticalAlign=middle;resizable=0;points=[];rounded=1;labelBackgroundColor=none;" parent="Vy30_EnvwmwGDLiwIp30-66" vertex="1" connectable="0">
          <mxGeometry relative="1" as="geometry">
            <mxPoint x="-44" y="-2" as="offset" />
          </mxGeometry>
        </mxCell>
        <mxCell id="Vy30_EnvwmwGDLiwIp30-68" style="rounded=0;orthogonalLoop=1;jettySize=auto;html=1;exitX=-0.004;exitY=0.177;exitDx=0;exitDy=0;endArrow=oval;endFill=1;labelBackgroundColor=none;fontColor=default;exitPerimeter=0;edgeStyle=orthogonalEdgeStyle;curved=0;" parent="1" source="Vy30_EnvwmwGDLiwIp30-27" edge="1">
          <mxGeometry relative="1" as="geometry">
            <mxPoint x="180" y="-280.1599999999999" as="targetPoint" />
            <mxPoint x="225" y="-280.1599999999999" as="sourcePoint" />
          </mxGeometry>
        </mxCell>
        <mxCell id="Vy30_EnvwmwGDLiwIp30-69" value="ID" style="edgeLabel;html=1;align=center;verticalAlign=middle;resizable=0;points=[];rounded=1;labelBackgroundColor=none;" parent="Vy30_EnvwmwGDLiwIp30-68" vertex="1" connectable="0">
          <mxGeometry relative="1" as="geometry">
            <mxPoint x="-35" y="-1" as="offset" />
          </mxGeometry>
        </mxCell>
        <mxCell id="Vy30_EnvwmwGDLiwIp30-70" style="rounded=0;orthogonalLoop=1;jettySize=auto;html=1;exitX=0.007;exitY=0.373;exitDx=0;exitDy=0;endArrow=oval;endFill=0;labelBackgroundColor=none;fontColor=default;exitPerimeter=0;edgeStyle=orthogonalEdgeStyle;curved=0;" parent="1" source="Vy30_EnvwmwGDLiwIp30-27" edge="1">
          <mxGeometry relative="1" as="geometry">
            <mxPoint x="179" y="-267.99999999999994" as="targetPoint" />
            <mxPoint x="224" y="-267.99999999999994" as="sourcePoint" />
          </mxGeometry>
        </mxCell>
        <mxCell id="Vy30_EnvwmwGDLiwIp30-71" value="nome" style="edgeLabel;html=1;align=center;verticalAlign=middle;resizable=0;points=[];rounded=1;labelBackgroundColor=none;" parent="Vy30_EnvwmwGDLiwIp30-70" vertex="1" connectable="0">
          <mxGeometry relative="1" as="geometry">
            <mxPoint x="-42" as="offset" />
          </mxGeometry>
        </mxCell>
        <mxCell id="Vy30_EnvwmwGDLiwIp30-74" style="rounded=0;hachureGap=4;orthogonalLoop=1;jettySize=auto;html=1;fontFamily=Architects Daughter;fontSource=https%3A%2F%2Ffonts.googleapis.com%2Fcss%3Ffamily%3DArchitects%2BDaughter;fontSize=16;edgeStyle=orthogonalEdgeStyle;exitX=0.501;exitY=0.038;exitDx=0;exitDy=0;exitPerimeter=0;endArrow=none;endFill=0;" parent="1" source="Vy30_EnvwmwGDLiwIp30-72" target="Vy30_EnvwmwGDLiwIp30-60" edge="1">
          <mxGeometry relative="1" as="geometry" />
        </mxCell>
        <mxCell id="Vy30_EnvwmwGDLiwIp30-79" value="(1, N)" style="edgeLabel;html=1;align=center;verticalAlign=middle;resizable=0;points=[];fontSize=11;fontFamily=Helvetica;" parent="Vy30_EnvwmwGDLiwIp30-74" vertex="1" connectable="0">
          <mxGeometry relative="1" as="geometry">
            <mxPoint y="-18" as="offset" />
          </mxGeometry>
        </mxCell>
        <mxCell id="Vy30_EnvwmwGDLiwIp30-72" value="compone" style="rhombus;whiteSpace=wrap;html=1;hachureGap=4;fontFamily=Architects Daughter;fontSource=https%3A%2F%2Ffonts.googleapis.com%2Fcss%3Ffamily%3DArchitects%2BDaughter;fontSize=13;rounded=1;labelBackgroundColor=none;" parent="1" vertex="1">
          <mxGeometry x="149" y="100" width="91" height="62" as="geometry" />
        </mxCell>
        <mxCell id="XaH3DRYimxq2jVA85XJj-8" style="rounded=0;orthogonalLoop=1;jettySize=auto;html=1;entryX=0;entryY=0.5;entryDx=0;entryDy=0;exitX=0.498;exitY=0.957;exitDx=0;exitDy=0;edgeStyle=orthogonalEdgeStyle;exitPerimeter=0;endArrow=none;endFill=0;" parent="1" source="XaH3DRYimxq2jVA85XJj-5" target="Vy30_EnvwmwGDLiwIp30-60" edge="1">
          <mxGeometry relative="1" as="geometry">
            <Array as="points">
              <mxPoint x="-5" y="-20" />
            </Array>
          </mxGeometry>
        </mxCell>
        <mxCell id="XaH3DRYimxq2jVA85XJj-9" value="(1, 1)" style="edgeLabel;html=1;align=center;verticalAlign=middle;resizable=0;points=[];rotation=0;" parent="XaH3DRYimxq2jVA85XJj-8" vertex="1" connectable="0">
          <mxGeometry relative="1" as="geometry">
            <mxPoint x="-1" as="offset" />
          </mxGeometry>
        </mxCell>
        <mxCell id="XaH3DRYimxq2jVA85XJj-5" value="responsabile&lt;br&gt;CdL" style="rhombus;whiteSpace=wrap;html=1;fontSize=16;fontFamily=Architects Daughter;rounded=1;hachureGap=4;fontSource=https%3A%2F%2Ffonts.googleapis.com%2Fcss%3Ffamily%3DArchitects%2BDaughter;labelBackgroundColor=none;" parent="1" vertex="1">
          <mxGeometry x="-80" y="-140" width="150" height="90" as="geometry" />
        </mxCell>
        <mxCell id="XaH3DRYimxq2jVA85XJj-14" value="" style="edgeStyle=orthogonalEdgeStyle;rounded=0;orthogonalLoop=1;jettySize=auto;html=1;endArrow=none;endFill=0;" parent="1" source="XaH3DRYimxq2jVA85XJj-11" target="XaH3DRYimxq2jVA85XJj-13" edge="1">
          <mxGeometry relative="1" as="geometry" />
        </mxCell>
        <mxCell id="XaH3DRYimxq2jVA85XJj-35" value="(1, 1)" style="edgeLabel;html=1;align=center;verticalAlign=middle;resizable=0;points=[];" parent="XaH3DRYimxq2jVA85XJj-14" vertex="1" connectable="0">
          <mxGeometry relative="1" as="geometry">
            <mxPoint x="77" as="offset" />
          </mxGeometry>
        </mxCell>
        <mxCell id="XaH3DRYimxq2jVA85XJj-19" style="edgeStyle=orthogonalEdgeStyle;rounded=0;orthogonalLoop=1;jettySize=auto;html=1;endArrow=none;endFill=0;" parent="1" source="XaH3DRYimxq2jVA85XJj-11" target="XaH3DRYimxq2jVA85XJj-17" edge="1">
          <mxGeometry relative="1" as="geometry" />
        </mxCell>
        <mxCell id="XaH3DRYimxq2jVA85XJj-34" value="(1, 1)" style="edgeLabel;html=1;align=center;verticalAlign=middle;resizable=0;points=[];" parent="XaH3DRYimxq2jVA85XJj-19" vertex="1" connectable="0">
          <mxGeometry relative="1" as="geometry">
            <mxPoint x="1" as="offset" />
          </mxGeometry>
        </mxCell>
        <mxCell id="XaH3DRYimxq2jVA85XJj-21" style="edgeStyle=orthogonalEdgeStyle;rounded=0;orthogonalLoop=1;jettySize=auto;html=1;entryX=0.5;entryY=0;entryDx=0;entryDy=0;endArrow=none;endFill=0;" parent="1" source="XaH3DRYimxq2jVA85XJj-11" target="XaH3DRYimxq2jVA85XJj-20" edge="1">
          <mxGeometry relative="1" as="geometry" />
        </mxCell>
        <mxCell id="XaH3DRYimxq2jVA85XJj-33" value="(1, 1)" style="edgeLabel;html=1;align=center;verticalAlign=middle;resizable=0;points=[];" parent="XaH3DRYimxq2jVA85XJj-21" vertex="1" connectable="0">
          <mxGeometry relative="1" as="geometry">
            <mxPoint x="-49" as="offset" />
          </mxGeometry>
        </mxCell>
        <mxCell id="XaH3DRYimxq2jVA85XJj-23" style="edgeStyle=orthogonalEdgeStyle;rounded=0;orthogonalLoop=1;jettySize=auto;html=1;exitX=0.5;exitY=0;exitDx=0;exitDy=0;endArrow=oval;endFill=0;" parent="1" source="XaH3DRYimxq2jVA85XJj-11" edge="1">
          <mxGeometry relative="1" as="geometry">
            <mxPoint x="640" y="-713" as="targetPoint" />
            <mxPoint x="640" y="-662" as="sourcePoint" />
            <Array as="points" />
          </mxGeometry>
        </mxCell>
        <mxCell id="XaH3DRYimxq2jVA85XJj-24" value="password" style="edgeLabel;html=1;align=center;verticalAlign=middle;resizable=0;points=[];" parent="XaH3DRYimxq2jVA85XJj-23" vertex="1" connectable="0">
          <mxGeometry relative="1" as="geometry">
            <mxPoint x="29" y="-24" as="offset" />
          </mxGeometry>
        </mxCell>
        <mxCell id="XaH3DRYimxq2jVA85XJj-29" style="edgeStyle=orthogonalEdgeStyle;rounded=0;orthogonalLoop=1;jettySize=auto;html=1;exitX=0.18;exitY=0.029;exitDx=0;exitDy=0;exitPerimeter=0;endArrow=oval;endFill=1;" parent="1" source="XaH3DRYimxq2jVA85XJj-11" edge="1">
          <mxGeometry relative="1" as="geometry">
            <mxPoint x="600" y="-735" as="targetPoint" />
            <mxPoint x="575.29" y="-668.9999999999999" as="sourcePoint" />
            <Array as="points">
              <mxPoint x="600" y="-667" />
            </Array>
          </mxGeometry>
        </mxCell>
        <mxCell id="XaH3DRYimxq2jVA85XJj-30" value="nome_utente" style="edgeLabel;html=1;align=center;verticalAlign=middle;resizable=0;points=[];" parent="XaH3DRYimxq2jVA85XJj-29" vertex="1" connectable="0">
          <mxGeometry relative="1" as="geometry">
            <mxPoint x="37" y="-36" as="offset" />
          </mxGeometry>
        </mxCell>
        <mxCell id="XaH3DRYimxq2jVA85XJj-11" value="Utente" style="rounded=1;whiteSpace=wrap;html=1;hachureGap=4;fontFamily=Architects Daughter;fontSource=https%3A%2F%2Ffonts.googleapis.com%2Fcss%3Ffamily%3DArchitects%2BDaughter;fontSize=20;labelBackgroundColor=none;" parent="1" vertex="1">
          <mxGeometry x="580" y="-669" width="120" height="60" as="geometry" />
        </mxCell>
        <mxCell id="XaH3DRYimxq2jVA85XJj-15" style="edgeStyle=orthogonalEdgeStyle;rounded=0;orthogonalLoop=1;jettySize=auto;html=1;entryX=0.5;entryY=0;entryDx=0;entryDy=0;endArrow=none;endFill=0;exitX=0.5;exitY=0.959;exitDx=0;exitDy=0;exitPerimeter=0;" parent="1" source="XaH3DRYimxq2jVA85XJj-13" target="Vy30_EnvwmwGDLiwIp30-27" edge="1">
          <mxGeometry relative="1" as="geometry">
            <mxPoint x="285" y="-528" as="sourcePoint" />
          </mxGeometry>
        </mxCell>
        <mxCell id="XaH3DRYimxq2jVA85XJj-37" value="(1, 1)" style="edgeLabel;html=1;align=center;verticalAlign=middle;resizable=0;points=[];" parent="XaH3DRYimxq2jVA85XJj-15" vertex="1" connectable="0">
          <mxGeometry relative="1" as="geometry">
            <mxPoint y="-2" as="offset" />
          </mxGeometry>
        </mxCell>
        <mxCell id="XaH3DRYimxq2jVA85XJj-13" value="accesso&lt;br style=&quot;font-size: 16px;&quot;&gt;docente" style="rhombus;whiteSpace=wrap;html=1;fontSize=16;fontFamily=Architects Daughter;rounded=1;hachureGap=4;fontSource=https%3A%2F%2Ffonts.googleapis.com%2Fcss%3Ffamily%3DArchitects%2BDaughter;labelBackgroundColor=none;" parent="1" vertex="1">
          <mxGeometry x="220" y="-530" width="130" height="80" as="geometry" />
        </mxCell>
        <mxCell id="XaH3DRYimxq2jVA85XJj-18" style="edgeStyle=orthogonalEdgeStyle;rounded=0;orthogonalLoop=1;jettySize=auto;html=1;entryX=0.5;entryY=0;entryDx=0;entryDy=0;endArrow=none;endFill=0;" parent="1" source="XaH3DRYimxq2jVA85XJj-17" target="Vy30_EnvwmwGDLiwIp30-21" edge="1">
          <mxGeometry relative="1" as="geometry" />
        </mxCell>
        <mxCell id="XaH3DRYimxq2jVA85XJj-36" value="(1, 1)" style="edgeLabel;html=1;align=center;verticalAlign=middle;resizable=0;points=[];" parent="XaH3DRYimxq2jVA85XJj-18" vertex="1" connectable="0">
          <mxGeometry relative="1" as="geometry">
            <mxPoint x="1" as="offset" />
          </mxGeometry>
        </mxCell>
        <mxCell id="XaH3DRYimxq2jVA85XJj-17" value="accesso&lt;br style=&quot;font-size: 16px;&quot;&gt;segreteria" style="rhombus;whiteSpace=wrap;html=1;fontSize=16;fontFamily=Architects Daughter;rounded=1;hachureGap=4;fontSource=https%3A%2F%2Ffonts.googleapis.com%2Fcss%3Ffamily%3DArchitects%2BDaughter;labelBackgroundColor=none;" parent="1" vertex="1">
          <mxGeometry x="574" y="-530" width="130" height="80" as="geometry" />
        </mxCell>
        <mxCell id="XaH3DRYimxq2jVA85XJj-22" style="edgeStyle=orthogonalEdgeStyle;rounded=0;orthogonalLoop=1;jettySize=auto;html=1;entryX=0.5;entryY=0;entryDx=0;entryDy=0;endArrow=none;endFill=0;" parent="1" source="XaH3DRYimxq2jVA85XJj-20" target="Vy30_EnvwmwGDLiwIp30-19" edge="1">
          <mxGeometry relative="1" as="geometry" />
        </mxCell>
        <mxCell id="XaH3DRYimxq2jVA85XJj-39" value="(1, 1)" style="edgeLabel;html=1;align=center;verticalAlign=middle;resizable=0;points=[];" parent="XaH3DRYimxq2jVA85XJj-22" vertex="1" connectable="0">
          <mxGeometry relative="1" as="geometry">
            <mxPoint y="-4" as="offset" />
          </mxGeometry>
        </mxCell>
        <mxCell id="XaH3DRYimxq2jVA85XJj-20" value="accesso&lt;br style=&quot;font-size: 16px;&quot;&gt;studente" style="rhombus;whiteSpace=wrap;html=1;fontSize=16;fontFamily=Architects Daughter;rounded=1;hachureGap=4;fontSource=https%3A%2F%2Ffonts.googleapis.com%2Fcss%3Ffamily%3DArchitects%2BDaughter;labelBackgroundColor=none;" parent="1" vertex="1">
          <mxGeometry x="900" y="-540" width="130" height="100" as="geometry" />
        </mxCell>
        <mxCell id="XaH3DRYimxq2jVA85XJj-31" style="edgeStyle=orthogonalEdgeStyle;rounded=0;orthogonalLoop=1;jettySize=auto;html=1;endArrow=oval;endFill=0;" parent="1" edge="1">
          <mxGeometry relative="1" as="geometry">
            <mxPoint x="670" y="-695" as="targetPoint" />
            <mxPoint x="670" y="-669" as="sourcePoint" />
            <Array as="points">
              <mxPoint x="670" y="-689" />
              <mxPoint x="670" y="-689" />
            </Array>
          </mxGeometry>
        </mxCell>
        <mxCell id="XaH3DRYimxq2jVA85XJj-32" value="profilo_utente" style="edgeLabel;html=1;align=center;verticalAlign=middle;resizable=0;points=[];" parent="XaH3DRYimxq2jVA85XJj-31" vertex="1" connectable="0">
          <mxGeometry relative="1" as="geometry">
            <mxPoint x="38" y="-15" as="offset" />
          </mxGeometry>
        </mxCell>
        <mxCell id="X9jWhabZ-hM0u1myjytv-1" style="rounded=1;orthogonalLoop=1;jettySize=auto;html=1;endArrow=oval;endFill=0;labelBackgroundColor=none;fontColor=default;exitX=0.568;exitY=0.011;exitDx=0;exitDy=0;exitPerimeter=0;" parent="1" edge="1">
          <mxGeometry relative="1" as="geometry">
            <mxPoint x="218.38" y="-80" as="targetPoint" />
            <mxPoint x="218.58000000000004" y="-49.999999999999915" as="sourcePoint" />
          </mxGeometry>
        </mxCell>
        <mxCell id="X9jWhabZ-hM0u1myjytv-2" value="tipologia_cdl" style="edgeLabel;html=1;align=center;verticalAlign=middle;resizable=0;points=[];rounded=1;labelBackgroundColor=none;" parent="X9jWhabZ-hM0u1myjytv-1" vertex="1" connectable="0">
          <mxGeometry relative="1" as="geometry">
            <mxPoint x="36" y="-16" as="offset" />
          </mxGeometry>
        </mxCell>
        <mxCell id="X9jWhabZ-hM0u1myjytv-5" style="rounded=1;orthogonalLoop=1;jettySize=auto;html=1;endArrow=oval;endFill=1;labelBackgroundColor=none;fontColor=default;" parent="1" edge="1">
          <mxGeometry relative="1" as="geometry">
            <mxPoint x="147" y="-99" as="targetPoint" />
            <mxPoint x="147" y="-52" as="sourcePoint" />
          </mxGeometry>
        </mxCell>
        <mxCell id="X9jWhabZ-hM0u1myjytv-6" value="ID" style="edgeLabel;html=1;align=center;verticalAlign=middle;resizable=0;points=[];rounded=1;labelBackgroundColor=none;" parent="X9jWhabZ-hM0u1myjytv-5" vertex="1" connectable="0">
          <mxGeometry relative="1" as="geometry">
            <mxPoint y="-33" as="offset" />
          </mxGeometry>
        </mxCell>
        <mxCell id="X9jWhabZ-hM0u1myjytv-7" style="rounded=1;orthogonalLoop=1;jettySize=auto;html=1;endArrow=oval;endFill=0;labelBackgroundColor=none;fontColor=default;" parent="1" edge="1">
          <mxGeometry relative="1" as="geometry">
            <mxPoint x="184" y="-97" as="targetPoint" />
            <mxPoint x="184" y="-52" as="sourcePoint" />
          </mxGeometry>
        </mxCell>
        <mxCell id="X9jWhabZ-hM0u1myjytv-8" value="nome" style="edgeLabel;html=1;align=center;verticalAlign=middle;resizable=0;points=[];rounded=1;labelBackgroundColor=none;" parent="X9jWhabZ-hM0u1myjytv-7" vertex="1" connectable="0">
          <mxGeometry relative="1" as="geometry">
            <mxPoint x="22" y="-22" as="offset" />
          </mxGeometry>
        </mxCell>
        <mxCell id="X9jWhabZ-hM0u1myjytv-10" value="" style="edgeStyle=none;orthogonalLoop=1;jettySize=auto;html=1;rounded=0;endArrow=oval;endFill=1;" parent="1" edge="1">
          <mxGeometry width="100" relative="1" as="geometry">
            <mxPoint x="359" y="124" as="sourcePoint" />
            <mxPoint x="170" y="80" as="targetPoint" />
            <Array as="points">
              <mxPoint x="360" y="80" />
            </Array>
          </mxGeometry>
        </mxCell>
        <mxCell id="X9jWhabZ-hM0u1myjytv-19" style="rounded=0;orthogonalLoop=1;jettySize=auto;html=1;endArrow=oval;endFill=0;exitX=0;exitY=0.75;exitDx=0;exitDy=0;" parent="1" source="Vy30_EnvwmwGDLiwIp30-14" edge="1">
          <mxGeometry relative="1" as="geometry">
            <mxPoint x="337" y="156" as="targetPoint" />
            <mxPoint x="374" y="155" as="sourcePoint" />
          </mxGeometry>
        </mxCell>
        <mxCell id="X9jWhabZ-hM0u1myjytv-20" value="desc" style="edgeLabel;html=1;align=center;verticalAlign=middle;resizable=0;points=[];" parent="X9jWhabZ-hM0u1myjytv-19" vertex="1" connectable="0">
          <mxGeometry x="1" y="-5" relative="1" as="geometry">
            <mxPoint x="-20" y="5" as="offset" />
          </mxGeometry>
        </mxCell>
        <mxCell id="X9jWhabZ-hM0u1myjytv-21" style="rounded=0;orthogonalLoop=1;jettySize=auto;html=1;endArrow=oval;endFill=0;exitX=0.053;exitY=0.997;exitDx=0;exitDy=0;exitPerimeter=0;" parent="1" source="Vy30_EnvwmwGDLiwIp30-14" edge="1">
          <mxGeometry relative="1" as="geometry">
            <mxPoint x="337" y="170" as="targetPoint" />
            <mxPoint x="380" y="170" as="sourcePoint" />
          </mxGeometry>
        </mxCell>
        <mxCell id="X9jWhabZ-hM0u1myjytv-22" value="anno" style="edgeLabel;html=1;align=center;verticalAlign=middle;resizable=0;points=[];" parent="X9jWhabZ-hM0u1myjytv-21" vertex="1" connectable="0">
          <mxGeometry x="1" y="-5" relative="1" as="geometry">
            <mxPoint x="-20" y="5" as="offset" />
          </mxGeometry>
        </mxCell>
        <mxCell id="X9jWhabZ-hM0u1myjytv-25" style="edgeStyle=orthogonalEdgeStyle;rounded=0;orthogonalLoop=1;jettySize=auto;html=1;entryX=0.498;entryY=0.939;entryDx=0;entryDy=0;endArrow=none;endFill=0;entryPerimeter=0;" parent="1" source="X9jWhabZ-hM0u1myjytv-23" target="X9jWhabZ-hM0u1myjytv-24" edge="1">
          <mxGeometry relative="1" as="geometry" />
        </mxCell>
        <mxCell id="X9jWhabZ-hM0u1myjytv-26" value="(0, N)" style="edgeLabel;html=1;align=center;verticalAlign=middle;resizable=0;points=[];" parent="X9jWhabZ-hM0u1myjytv-25" vertex="1" connectable="0">
          <mxGeometry x="-0.0621" y="1" relative="1" as="geometry">
            <mxPoint x="-1" as="offset" />
          </mxGeometry>
        </mxCell>
        <mxCell id="X9jWhabZ-hM0u1myjytv-31" style="edgeStyle=orthogonalEdgeStyle;rounded=0;orthogonalLoop=1;jettySize=auto;html=1;endArrow=none;endFill=0;entryX=0.962;entryY=0.5;entryDx=0;entryDy=0;entryPerimeter=0;" parent="1" source="X9jWhabZ-hM0u1myjytv-23" target="X9jWhabZ-hM0u1myjytv-34" edge="1">
          <mxGeometry relative="1" as="geometry">
            <mxPoint x="841.8" y="126" as="targetPoint" />
          </mxGeometry>
        </mxCell>
        <mxCell id="X9jWhabZ-hM0u1myjytv-37" value="(1, 1)" style="edgeLabel;html=1;align=center;verticalAlign=middle;resizable=0;points=[];" parent="X9jWhabZ-hM0u1myjytv-31" vertex="1" connectable="0">
          <mxGeometry x="-0.0364" y="-1" relative="1" as="geometry">
            <mxPoint x="-2" as="offset" />
          </mxGeometry>
        </mxCell>
        <mxCell id="X9jWhabZ-hM0u1myjytv-38" style="edgeStyle=orthogonalEdgeStyle;rounded=0;orthogonalLoop=1;jettySize=auto;html=1;exitX=0.044;exitY=0.007;exitDx=0;exitDy=0;exitPerimeter=0;endArrow=oval;endFill=0;" parent="1" source="X9jWhabZ-hM0u1myjytv-23" edge="1">
          <mxGeometry relative="1" as="geometry">
            <mxPoint x="898" y="58" as="targetPoint" />
          </mxGeometry>
        </mxCell>
        <mxCell id="X9jWhabZ-hM0u1myjytv-39" value="data" style="edgeLabel;html=1;align=center;verticalAlign=middle;resizable=0;points=[];" parent="X9jWhabZ-hM0u1myjytv-38" vertex="1" connectable="0">
          <mxGeometry x="1" y="-1" relative="1" as="geometry">
            <mxPoint x="14" y="-1" as="offset" />
          </mxGeometry>
        </mxCell>
        <mxCell id="X9jWhabZ-hM0u1myjytv-23" value="Esame" style="rounded=1;whiteSpace=wrap;html=1;hachureGap=4;fontFamily=Architects Daughter;fontSource=https%3A%2F%2Ffonts.googleapis.com%2Fcss%3Ffamily%3DArchitects%2BDaughter;fontSize=20;labelBackgroundColor=none;" parent="1" vertex="1">
          <mxGeometry x="890" y="96" width="150" height="60" as="geometry" />
        </mxCell>
        <mxCell id="X9jWhabZ-hM0u1myjytv-27" style="edgeStyle=orthogonalEdgeStyle;rounded=0;orthogonalLoop=1;jettySize=auto;html=1;entryX=0.5;entryY=1;entryDx=0;entryDy=0;endArrow=none;endFill=0;" parent="1" source="X9jWhabZ-hM0u1myjytv-24" target="Vy30_EnvwmwGDLiwIp30-19" edge="1">
          <mxGeometry relative="1" as="geometry" />
        </mxCell>
        <mxCell id="X9jWhabZ-hM0u1myjytv-28" value="(0, N)" style="edgeLabel;html=1;align=center;verticalAlign=middle;resizable=0;points=[];" parent="X9jWhabZ-hM0u1myjytv-27" vertex="1" connectable="0">
          <mxGeometry x="0.2118" y="1" relative="1" as="geometry">
            <mxPoint y="3" as="offset" />
          </mxGeometry>
        </mxCell>
        <mxCell id="X9jWhabZ-hM0u1myjytv-24" value="iscrizione&lt;br&gt;esame" style="rhombus;whiteSpace=wrap;html=1;hachureGap=4;fontFamily=Architects Daughter;fontSource=https%3A%2F%2Ffonts.googleapis.com%2Fcss%3Ffamily%3DArchitects%2BDaughter;fontSize=16;rounded=1;labelBackgroundColor=none;" parent="1" vertex="1">
          <mxGeometry x="910" y="-106" width="110" height="80" as="geometry" />
        </mxCell>
        <mxCell id="X9jWhabZ-hM0u1myjytv-34" value="calendario" style="rhombus;whiteSpace=wrap;html=1;hachureGap=4;fontFamily=Architects Daughter;fontSource=https%3A%2F%2Ffonts.googleapis.com%2Fcss%3Ffamily%3DArchitects%2BDaughter;fontSize=13;rounded=1;labelBackgroundColor=none;" parent="1" vertex="1">
          <mxGeometry x="748" y="98" width="79" height="56" as="geometry" />
        </mxCell>
        <mxCell id="X9jWhabZ-hM0u1myjytv-36" style="edgeStyle=orthogonalEdgeStyle;rounded=0;orthogonalLoop=1;jettySize=auto;html=1;endArrow=none;endFill=0;exitX=0.048;exitY=0.493;exitDx=0;exitDy=0;exitPerimeter=0;" parent="1" source="X9jWhabZ-hM0u1myjytv-34" edge="1">
          <mxGeometry relative="1" as="geometry">
            <mxPoint x="531" y="126" as="targetPoint" />
          </mxGeometry>
        </mxCell>
        <mxCell id="X9jWhabZ-hM0u1myjytv-42" value="(0, N)" style="edgeLabel;html=1;align=center;verticalAlign=middle;resizable=0;points=[];" parent="X9jWhabZ-hM0u1myjytv-36" vertex="1" connectable="0">
          <mxGeometry x="-0.7648" y="-1" relative="1" as="geometry">
            <mxPoint x="-26" as="offset" />
          </mxGeometry>
        </mxCell>
        <mxCell id="X9jWhabZ-hM0u1myjytv-41" style="edgeStyle=orthogonalEdgeStyle;rounded=0;orthogonalLoop=1;jettySize=auto;html=1;endArrow=none;endFill=0;startArrow=oval;startFill=1;" parent="1" edge="1">
          <mxGeometry relative="1" as="geometry">
            <mxPoint x="921" y="77" as="targetPoint" />
            <mxPoint x="727" y="77" as="sourcePoint" />
            <Array as="points">
              <mxPoint x="921" y="77" />
            </Array>
          </mxGeometry>
        </mxCell>
        <mxCell id="X9jWhabZ-hM0u1myjytv-43" value="" style="edgeStyle=none;orthogonalLoop=1;jettySize=auto;html=1;rounded=0;endArrow=none;endFill=0;" parent="1" edge="1">
          <mxGeometry width="100" relative="1" as="geometry">
            <mxPoint x="740" y="63" as="sourcePoint" />
            <mxPoint x="740" y="146" as="targetPoint" />
            <Array as="points" />
          </mxGeometry>
        </mxCell>
        <mxCell id="X9jWhabZ-hM0u1myjytv-54" style="edgeStyle=orthogonalEdgeStyle;rounded=0;orthogonalLoop=1;jettySize=auto;html=1;entryX=1;entryY=0.25;entryDx=0;entryDy=0;exitX=0.491;exitY=0.956;exitDx=0;exitDy=0;exitPerimeter=0;endArrow=none;endFill=0;" parent="1" source="X9jWhabZ-hM0u1myjytv-51" target="X9jWhabZ-hM0u1myjytv-23" edge="1">
          <mxGeometry relative="1" as="geometry">
            <Array as="points">
              <mxPoint x="1173" y="111" />
            </Array>
          </mxGeometry>
        </mxCell>
        <mxCell id="X9jWhabZ-hM0u1myjytv-56" value="(0, N)" style="edgeLabel;html=1;align=center;verticalAlign=middle;resizable=0;points=[];" parent="X9jWhabZ-hM0u1myjytv-54" vertex="1" connectable="0">
          <mxGeometry x="0.4513" relative="1" as="geometry">
            <mxPoint x="59" y="-76" as="offset" />
          </mxGeometry>
        </mxCell>
        <mxCell id="X9jWhabZ-hM0u1myjytv-57" style="edgeStyle=orthogonalEdgeStyle;rounded=0;orthogonalLoop=1;jettySize=auto;html=1;endArrow=oval;endFill=0;exitX=0.034;exitY=0.501;exitDx=0;exitDy=0;exitPerimeter=0;" parent="1" source="X9jWhabZ-hM0u1myjytv-51" edge="1">
          <mxGeometry relative="1" as="geometry">
            <mxPoint x="1087.0010810810809" y="-66.00000000000023" as="targetPoint" />
          </mxGeometry>
        </mxCell>
        <mxCell id="X9jWhabZ-hM0u1myjytv-58" value="voto" style="edgeLabel;html=1;align=center;verticalAlign=middle;resizable=0;points=[];" parent="X9jWhabZ-hM0u1myjytv-57" vertex="1" connectable="0">
          <mxGeometry x="1" y="-3" relative="1" as="geometry">
            <mxPoint x="-20" y="-1" as="offset" />
          </mxGeometry>
        </mxCell>
        <mxCell id="X9jWhabZ-hM0u1myjytv-51" value="carriera" style="rhombus;whiteSpace=wrap;html=1;hachureGap=4;fontFamily=Architects Daughter;fontSource=https%3A%2F%2Ffonts.googleapis.com%2Fcss%3Ffamily%3DArchitects%2BDaughter;fontSize=10;rounded=1;labelBackgroundColor=none;" parent="1" vertex="1">
          <mxGeometry x="1118.92" y="-106" width="110" height="80" as="geometry" />
        </mxCell>
        <mxCell id="X9jWhabZ-hM0u1myjytv-59" style="edgeStyle=orthogonalEdgeStyle;rounded=0;orthogonalLoop=1;jettySize=auto;html=1;endArrow=oval;endFill=0;exitX=0.961;exitY=0.5;exitDx=0;exitDy=0;exitPerimeter=0;" parent="1" source="X9jWhabZ-hM0u1myjytv-51" edge="1">
          <mxGeometry relative="1" as="geometry">
            <mxPoint x="1261.8400000000001" y="-66.08" as="targetPoint" />
            <mxPoint x="1225.921081081081" y="-66.08000000000023" as="sourcePoint" />
          </mxGeometry>
        </mxCell>
        <mxCell id="X9jWhabZ-hM0u1myjytv-60" value="esito" style="edgeLabel;html=1;align=center;verticalAlign=middle;resizable=0;points=[];" parent="X9jWhabZ-hM0u1myjytv-59" vertex="1" connectable="0">
          <mxGeometry x="1" y="-3" relative="1" as="geometry">
            <mxPoint x="14" y="-2" as="offset" />
          </mxGeometry>
        </mxCell>
        <mxCell id="X9jWhabZ-hM0u1myjytv-61" style="edgeStyle=orthogonalEdgeStyle;rounded=0;orthogonalLoop=1;jettySize=auto;html=1;endArrow=oval;endFill=0;exitX=1;exitY=0.5;exitDx=0;exitDy=0;" parent="1" source="X9jWhabZ-hM0u1myjytv-63" edge="1">
          <mxGeometry relative="1" as="geometry">
            <mxPoint x="1536" y="140" as="targetPoint" />
            <mxPoint x="1560" y="139" as="sourcePoint" />
          </mxGeometry>
        </mxCell>
        <mxCell id="X9jWhabZ-hM0u1myjytv-62" value="voto" style="edgeLabel;html=1;align=center;verticalAlign=middle;resizable=0;points=[];" parent="X9jWhabZ-hM0u1myjytv-61" vertex="1" connectable="0">
          <mxGeometry x="1" y="-3" relative="1" as="geometry">
            <mxPoint x="-1" y="-15" as="offset" />
          </mxGeometry>
        </mxCell>
        <mxCell id="X9jWhabZ-hM0u1myjytv-67" style="edgeStyle=orthogonalEdgeStyle;rounded=0;orthogonalLoop=1;jettySize=auto;html=1;entryX=0.5;entryY=0;entryDx=0;entryDy=0;endArrow=none;endFill=0;" parent="1" source="X9jWhabZ-hM0u1myjytv-63" target="X9jWhabZ-hM0u1myjytv-72" edge="1">
          <mxGeometry relative="1" as="geometry">
            <mxPoint x="1422" y="461" as="targetPoint" />
          </mxGeometry>
        </mxCell>
        <mxCell id="X9jWhabZ-hM0u1myjytv-71" value="(0, N)" style="edgeLabel;html=1;align=center;verticalAlign=middle;resizable=0;points=[];" parent="X9jWhabZ-hM0u1myjytv-67" vertex="1" connectable="0">
          <mxGeometry x="-0.4218" relative="1" as="geometry">
            <mxPoint as="offset" />
          </mxGeometry>
        </mxCell>
        <mxCell id="X9jWhabZ-hM0u1myjytv-68" style="edgeStyle=orthogonalEdgeStyle;rounded=0;orthogonalLoop=1;jettySize=auto;html=1;entryX=1;entryY=0.75;entryDx=0;entryDy=0;exitX=0;exitY=0.5;exitDx=0;exitDy=0;endArrow=none;endFill=0;" parent="1" source="X9jWhabZ-hM0u1myjytv-63" target="X9jWhabZ-hM0u1myjytv-23" edge="1">
          <mxGeometry relative="1" as="geometry">
            <mxPoint x="1469" y="141" as="sourcePoint" />
          </mxGeometry>
        </mxCell>
        <mxCell id="X9jWhabZ-hM0u1myjytv-69" value="(0,N)" style="edgeLabel;html=1;align=center;verticalAlign=middle;resizable=0;points=[];" parent="X9jWhabZ-hM0u1myjytv-68" vertex="1" connectable="0">
          <mxGeometry x="0.0665" relative="1" as="geometry">
            <mxPoint x="123" y="-1" as="offset" />
          </mxGeometry>
        </mxCell>
        <mxCell id="X9jWhabZ-hM0u1myjytv-63" value="carriera_storico" style="rhombus;whiteSpace=wrap;html=1;hachureGap=4;fontFamily=Architects Daughter;fontSource=https%3A%2F%2Ffonts.googleapis.com%2Fcss%3Ffamily%3DArchitects%2BDaughter;fontSize=10;rounded=1;labelBackgroundColor=none;" parent="1" vertex="1">
          <mxGeometry x="1392" y="100" width="110" height="80" as="geometry" />
        </mxCell>
        <mxCell id="X9jWhabZ-hM0u1myjytv-64" style="edgeStyle=orthogonalEdgeStyle;rounded=0;orthogonalLoop=1;jettySize=auto;html=1;endArrow=oval;endFill=0;" parent="1" edge="1">
          <mxGeometry relative="1" as="geometry">
            <mxPoint x="1447" y="78" as="targetPoint" />
            <mxPoint x="1447" y="102" as="sourcePoint" />
          </mxGeometry>
        </mxCell>
        <mxCell id="X9jWhabZ-hM0u1myjytv-65" value="esito" style="edgeLabel;html=1;align=center;verticalAlign=middle;resizable=0;points=[];" parent="X9jWhabZ-hM0u1myjytv-64" vertex="1" connectable="0">
          <mxGeometry x="1" y="-3" relative="1" as="geometry">
            <mxPoint x="18" y="-4" as="offset" />
          </mxGeometry>
        </mxCell>
        <mxCell id="X9jWhabZ-hM0u1myjytv-72" value="Storico_Studente" style="rounded=1;whiteSpace=wrap;html=1;hachureGap=4;fontFamily=Architects Daughter;fontSource=https%3A%2F%2Ffonts.googleapis.com%2Fcss%3Ffamily%3DArchitects%2BDaughter;fontSize=16;labelBackgroundColor=none;" parent="1" vertex="1">
          <mxGeometry x="1372" y="324" width="150" height="60" as="geometry" />
        </mxCell>
        <mxCell id="X9jWhabZ-hM0u1myjytv-73" style="edgeStyle=orthogonalEdgeStyle;rounded=1;orthogonalLoop=1;jettySize=auto;html=1;exitX=0.999;exitY=0.598;exitDx=0;exitDy=0;endArrow=oval;endFill=0;labelBackgroundColor=none;fontColor=default;exitPerimeter=0;" parent="1" source="X9jWhabZ-hM0u1myjytv-72" edge="1">
          <mxGeometry relative="1" as="geometry">
            <mxPoint x="1546" y="360" as="targetPoint" />
            <mxPoint x="1501" y="360" as="sourcePoint" />
          </mxGeometry>
        </mxCell>
        <mxCell id="X9jWhabZ-hM0u1myjytv-74" value="cognome" style="edgeLabel;html=1;align=center;verticalAlign=middle;resizable=0;points=[];rounded=1;labelBackgroundColor=none;" parent="X9jWhabZ-hM0u1myjytv-73" vertex="1" connectable="0">
          <mxGeometry relative="1" as="geometry">
            <mxPoint x="50" y="-1" as="offset" />
          </mxGeometry>
        </mxCell>
        <mxCell id="X9jWhabZ-hM0u1myjytv-75" style="edgeStyle=orthogonalEdgeStyle;rounded=1;orthogonalLoop=1;jettySize=auto;html=1;endArrow=oval;endFill=0;labelBackgroundColor=none;fontColor=default;exitX=0.992;exitY=0.895;exitDx=0;exitDy=0;exitPerimeter=0;" parent="1" source="X9jWhabZ-hM0u1myjytv-72" edge="1">
          <mxGeometry relative="1" as="geometry">
            <mxPoint x="1546" y="378" as="targetPoint" />
            <mxPoint x="1514" y="378" as="sourcePoint" />
          </mxGeometry>
        </mxCell>
        <mxCell id="X9jWhabZ-hM0u1myjytv-76" value="email" style="edgeLabel;html=1;align=center;verticalAlign=middle;resizable=0;points=[];rounded=1;labelBackgroundColor=none;" parent="X9jWhabZ-hM0u1myjytv-75" vertex="1" connectable="0">
          <mxGeometry relative="1" as="geometry">
            <mxPoint x="40" y="-1" as="offset" />
          </mxGeometry>
        </mxCell>
        <mxCell id="X9jWhabZ-hM0u1myjytv-77" style="edgeStyle=orthogonalEdgeStyle;rounded=1;orthogonalLoop=1;jettySize=auto;html=1;endArrow=oval;endFill=1;labelBackgroundColor=none;fontColor=default;exitX=1.003;exitY=0.156;exitDx=0;exitDy=0;exitPerimeter=0;" parent="1" source="X9jWhabZ-hM0u1myjytv-72" edge="1">
          <mxGeometry relative="1" as="geometry">
            <mxPoint x="1546" y="333" as="targetPoint" />
            <mxPoint x="1508" y="333" as="sourcePoint" />
          </mxGeometry>
        </mxCell>
        <mxCell id="X9jWhabZ-hM0u1myjytv-78" value="matricola" style="edgeLabel;html=1;align=center;verticalAlign=middle;resizable=0;points=[];rounded=1;labelBackgroundColor=none;" parent="X9jWhabZ-hM0u1myjytv-77" vertex="1" connectable="0">
          <mxGeometry relative="1" as="geometry">
            <mxPoint x="49" y="-2" as="offset" />
          </mxGeometry>
        </mxCell>
        <mxCell id="X9jWhabZ-hM0u1myjytv-79" style="edgeStyle=orthogonalEdgeStyle;rounded=1;orthogonalLoop=1;jettySize=auto;html=1;exitX=1.003;exitY=0.355;exitDx=0;exitDy=0;endArrow=oval;endFill=0;labelBackgroundColor=none;fontColor=default;exitPerimeter=0;" parent="1" source="X9jWhabZ-hM0u1myjytv-72" edge="1">
          <mxGeometry relative="1" as="geometry">
            <mxPoint x="1546" y="345" as="targetPoint" />
            <mxPoint x="1501" y="345" as="sourcePoint" />
          </mxGeometry>
        </mxCell>
        <mxCell id="X9jWhabZ-hM0u1myjytv-80" value="nome" style="edgeLabel;html=1;align=center;verticalAlign=middle;resizable=0;points=[];rounded=1;labelBackgroundColor=none;" parent="X9jWhabZ-hM0u1myjytv-79" vertex="1" connectable="0">
          <mxGeometry relative="1" as="geometry">
            <mxPoint x="41" y="-2" as="offset" />
          </mxGeometry>
        </mxCell>
        <mxCell id="X9jWhabZ-hM0u1myjytv-81" style="edgeStyle=orthogonalEdgeStyle;rounded=0;orthogonalLoop=1;jettySize=auto;html=1;endArrow=none;endFill=0;entryX=0.12;entryY=0.993;entryDx=0;entryDy=0;entryPerimeter=0;" parent="1" target="Vy30_EnvwmwGDLiwIp30-60" edge="1">
          <mxGeometry relative="1" as="geometry">
            <mxPoint x="915" y="354" as="sourcePoint" />
            <mxPoint x="138" y="11" as="targetPoint" />
          </mxGeometry>
        </mxCell>
        <mxCell id="X9jWhabZ-hM0u1myjytv-85" value="(0, N)" style="edgeLabel;html=1;align=center;verticalAlign=middle;resizable=0;points=[];" parent="X9jWhabZ-hM0u1myjytv-81" vertex="1" connectable="0">
          <mxGeometry x="-0.9068" y="1" relative="1" as="geometry">
            <mxPoint as="offset" />
          </mxGeometry>
        </mxCell>
        <mxCell id="X9jWhabZ-hM0u1myjytv-83" style="edgeStyle=orthogonalEdgeStyle;rounded=0;orthogonalLoop=1;jettySize=auto;html=1;entryX=0;entryY=0.5;entryDx=0;entryDy=0;endArrow=none;endFill=0;" parent="1" source="X9jWhabZ-hM0u1myjytv-82" target="X9jWhabZ-hM0u1myjytv-72" edge="1">
          <mxGeometry relative="1" as="geometry" />
        </mxCell>
        <mxCell id="X9jWhabZ-hM0u1myjytv-84" value="(1, 1)" style="edgeLabel;html=1;align=center;verticalAlign=middle;resizable=0;points=[];" parent="X9jWhabZ-hM0u1myjytv-83" vertex="1" connectable="0">
          <mxGeometry x="-0.3948" relative="1" as="geometry">
            <mxPoint as="offset" />
          </mxGeometry>
        </mxCell>
        <mxCell id="X9jWhabZ-hM0u1myjytv-82" value="iscrizione_passata" style="rhombus;whiteSpace=wrap;html=1;hachureGap=4;fontFamily=Architects Daughter;fontSource=https%3A%2F%2Ffonts.googleapis.com%2Fcss%3Ffamily%3DArchitects%2BDaughter;fontSize=10;rounded=1;labelBackgroundColor=none;" parent="1" vertex="1">
          <mxGeometry x="915" y="314" width="110" height="80" as="geometry" />
        </mxCell>
      </root>
    </mxGraphModel>
  </diagram>
</mxfile>
